#!OML:ASF F:\twosubjects\two\Thursday\Session 1\justin.ASF
:FULLY-SPECIFIED
:DEGREES
517
root 10.7761 17.8115 -11.9835 1.03753 -49.8128 5.4234
lowerback -2.31987 2.17584 -2.52809
upperback -0.414215 2.95452 0.747987
thorax 0.707008 1.47141 2.26338
lowerneck -23.624 6.7691 -1.4225
upperneck 23.2302 11.3211 -4.51419
head 11.7229 4.31016 0.45934
rclavicle -4.84041e-014 -1.35174e-014
rhumerus -35.9103 -23.634 -69.4658
rradius 22.8707
rwrist 4.01004
rhand -17.2936 12.6431
rfingers 7.12502
rthumb 8.95201 -17.147
lclavicle -4.84041e-014 -1.35174e-014
lhumerus -36.0485 26.0144 73.1615
lradius 19.7911
lwrist -25.1012
lhand -0.746299 40.9234
lfingers 7.12502
lthumb 24.8754 69.3249
rfemur -5.32641 -3.03785 6.03658
rtibia 19.865
rfoot -14.2807 -16.9785
rtoes -18.3321
lfemur -7.13584 11.102 -26.7147
ltibia 16.7136
lfoot -13.761 -1.32371
ltoes -6.71707
518
root 10.7766 17.814 -11.9805 1.15178 -49.7714 5.23715
lowerback -2.30857 2.13498 -2.50121
upperback -0.411746 2.89827 0.83626
thorax 0.703196 1.44336 2.33714
lowerneck -23.6578 6.78442 -1.52085
upperneck 23.4196 11.346 -4.33796
head 11.7827 4.3266 0.547109
rclavicle 2.98177e-014 7.95139e-016
rhumerus -36.1207 -23.4627 -69.3468
rradius 23.0076
rwrist 3.7087
rhand -17.2723 11.6506
rfingers 7.12502
rthumb 8.97257 -18.1386
lclavicle 2.98177e-014 7.95139e-016
lhumerus -36.587 26.8695 72.6394
lradius 19.9164
lwrist -25.9725
lhand -0.175858 41.2336
lfingers 7.12502
lthumb 25.4219 69.5584
rfemur -5.2737 -3.00269 6.17316
rtibia 19.8562
rfoot -14.2764 -17.0313
rtoes -18.3422
lfemur -7.07447 11.0777 -26.5736
ltibia 16.6762
lfoot -13.7447 -1.32224
ltoes -6.91355
519
root 10.7754 17.8171 -11.9749 1.40512 -49.7189 4.81616
lowerback -2.26667 2.13669 -2.32582
upperback -0.414636 2.89407 0.95956
thorax 0.679341 1.4419 2.36355
lowerneck -23.6872 6.8067 -1.46181
upperneck 23.6625 11.3792 -4.3374
head 11.8862 4.33343 0.549497
rclavicle 3.00165e-014 1.59028e-015
rhumerus -36.3419 -23.0139 -69.3506
rradius 23.2177
rwrist 3.00151
rhand -17.3825 10.6447
rfingers 7.12502
rthumb 8.86627 -19.149
lclavicle 3.00165e-014 1.59028e-015
lhumerus -36.684 26.2341 72.9486
lradius 20.1484
lwrist -25.2121
lhand -0.133073 41.9429
lfingers 7.12502
lthumb 25.4629 70.2619
rfemur -5.14088 -2.91021 6.4685
rtibia 19.8282
rfoot -14.3877 -17.078
rtoes -18.049
lfemur -6.95724 11.0178 -26.2657
ltibia 16.6469
lfoot -13.8858 -1.30183
ltoes -7.13363
520
root 10.7744 17.818 -11.9691 1.46488 -49.7223 4.73656
lowerback -2.33267 2.21193 -2.29322
upperback -0.438992 2.99522 0.908581
thorax 0.689862 1.4926 2.29761
lowerneck -23.3891 6.82567 -1.59663
upperneck 23.7199 11.3069 -3.85354
head 11.8028 4.36307 0.723446
rclavicle 8.44835e-015 -5.56597e-015
rhumerus -36.6657 -23.2053 -69.1215
rradius 23.225
rwrist 3.25131
rhand -17.1892 11.1191
rfingers 7.12502
rthumb 9.0528 -18.6667
lclavicle 8.44835e-015 -5.56597e-015
lhumerus -36.4119 25.1196 73.3817
lradius 20.1624
lwrist -23.5532
lhand -0.39889 42.5987
lfingers 7.12502
lthumb 25.2083 70.9538
rfemur -5.06316 -2.84151 6.51216
rtibia 19.7197
rfoot -14.387 -17.1177
rtoes -17.7246
lfemur -6.9665 10.9493 -26.2136
ltibia 16.7051
lfoot -13.9083 -1.26192
ltoes -7.51242
521
root 10.7752 17.813 -11.9662 1.39742 -49.6219 4.75784
lowerback -2.31777 2.24448 -2.31446
upperback -0.433557 3.03962 0.836963
thorax 0.687394 1.51477 2.23657
lowerneck -23.1211 6.85508 -2.04402
upperneck 23.8 11.2387 -2.93725
head 11.6817 4.42484 1.10274
rclavicle 6.56983e-014 1.51076e-014
rhumerus -36.8403 -23.3736 -69.0461
rradius 23.2189
rwrist 3.11964
rhand -17.4742 11.0432
rfingers 7.12502
rthumb 8.77771 -18.7543
lclavicle 6.56983e-014 1.51076e-014
lhumerus -36.1786 24.2762 73.7197
lradius 20.1899
lwrist -21.9146
lhand -0.824478 42.8106
lfingers 7.12502
lthumb 24.8004 71.2225
rfemur -4.89263 -2.87154 6.49378
rtibia 19.6016
rfoot -14.3409 -17.1797
rtoes -17.4909
lfemur -6.94986 10.8258 -26.2183
ltibia 16.7979
lfoot -13.9448 -1.21983
ltoes -8.56903
522
root 10.7768 17.809 -11.9643 1.33796 -49.4492 4.74535
lowerback -2.23893 2.20606 -2.3284
upperback -0.394992 2.98746 0.834939
thorax 0.68511 1.48838 2.23862
lowerneck -23.2681 6.83481 -2.26844
upperneck 24.072 11.1971 -2.52042
head 11.768 4.4279 1.29322
rclavicle 4.96962e-016 4.77083e-015
rhumerus -36.808 -23.3828 -69.0549
rradius 23.2125
rwrist 2.67625
rhand -17.9345 10.4036
rfingers 7.12502
rthumb 8.33353 -19.412
lclavicle 4.96962e-016 4.77083e-015
lhumerus -36.2452 24.603 73.5311
lradius 20.2734
lwrist -22.4024
lhand -0.455549 42.6278
lfingers 7.12502
lthumb 25.154 70.9905
rfemur -4.70262 -2.91548 6.49892
rtibia 19.5277
rfoot -14.414 -17.2135
rtoes -16.9913
lfemur -6.9118 10.6938 -26.2024
ltibia 16.8812
lfoot -14.0638 -1.21425
ltoes -9.38513
523
root 10.7777 17.8101 -11.9639 1.52294 -49.5318 4.56331
lowerback -2.2758 2.24048 -2.21436
upperback -0.396417 3.03149 0.817814
thorax 0.708698 1.51025 2.16001
lowerneck -23.404 6.80585 -2.12604
upperneck 24.2766 11.1333 -2.54579
head 11.8837 4.39547 1.26242
rclavicle -1.49089e-014 1.59028e-015
rhumerus -36.9117 -24.0429 -68.6988
rradius 23.0111
rwrist 3.57131
rhand -17.3752 11.0591
rfingers 7.12502
rthumb 8.87333 -18.7343
lclavicle -1.49089e-014 1.59028e-015
lhumerus -36.3405 25.0957 73.1223
lradius 20.3673
lwrist -23.3973
lhand 0.354641 42.6629
lfingers 7.12502
lthumb 25.93 70.9144
rfemur -4.78642 -2.81961 6.63455
rtibia 19.4965
rfoot -14.3701 -17.2513
rtoes -17.0549
lfemur -7.00976 10.7901 -26.0881
ltibia 16.9546
lfoot -14.0889 -1.19448
ltoes -9.97905
524
root 10.777 17.8096 -11.9664 1.55675 -49.6411 4.54263
lowerback -2.29373 2.26727 -2.27304
upperback -0.423208 3.06904 0.790242
thorax 0.687682 1.52947 2.16544
lowerneck -23.2731 6.8474 -2.0753
upperneck 24.3075 11.1322 -2.41735
head 11.8631 4.41963 1.29645
rclavicle 8.69683e-015 3.18055e-015
rhumerus -37.1294 -24.5918 -68.3955
rradius 22.9362
rwrist 4.50591
rhand -16.8676 11.4992
rfingers 7.12502
rthumb 9.36312 -18.2729
lclavicle 8.69683e-015 3.18055e-015
lhumerus -36.3695 24.9625 73.0403
lradius 20.6116
lwrist -23.1325
lhand 0.136476 42.9024
lfingers 7.12502
lthumb 25.7211 71.1843
rfemur -4.87733 -2.76002 6.66118
rtibia 19.5125
rfoot -14.2583 -17.3119
rtoes -17.575
lfemur -7.0688 11.0064 -26.088
ltibia 16.9993
lfoot -14.0855 -1.23479
ltoes -8.94404
525
root 10.7784 17.8083 -11.967 1.42932 -49.597 4.67031
lowerback -2.23727 2.2213 -2.44768
upperback -0.44793 3.01037 0.803426
thorax 0.624153 1.50108 2.2719
lowerneck -23.0736 6.91823 -2.28855
upperneck 24.2824 11.2021 -2.08783
head 11.776 4.48396 1.45077
rclavicle 7.1811e-014 -7.95139e-015
rhumerus -37.111 -24.2464 -68.6175
rradius 23.0718
rwrist 3.89815
rhand -17.3596 10.8535
rfingers 7.12502
rthumb 8.8883 -18.9393
lclavicle 7.1811e-014 -7.95139e-015
lhumerus -36.3135 24.4698 73.2934
lradius 20.9012
lwrist -22.163
lhand -0.186607 43.0623
lfingers 7.12502
lthumb 25.4116 71.3886
rfemur -4.85637 -2.89299 6.56221
rtibia 19.5464
rfoot -14.2376 -17.2624
rtoes -17.8855
lfemur -7.05976 11.0454 -26.1979
ltibia 17.0288
lfoot -14.0903 -1.22163
ltoes -7.77154
